<mxfile host="app.diagrams.net" modified="2023-06-28T08:36:21.038Z" agent="Mozilla/5.0 (Macintosh; Intel Mac OS X 10_15_7) AppleWebKit/537.36 (KHTML, like Gecko) Chrome/114.0.0.0 Safari/537.36" etag="lwkvVsik3TUtKNEEjlGE" version="21.5.1" type="github">
  <diagram name="第 1 页" id="w4x_2R9_S8eYR8eUu1c0">
    <mxGraphModel dx="1771" dy="1763" grid="1" gridSize="10" guides="1" tooltips="1" connect="1" arrows="1" fold="1" page="1" pageScale="1" pageWidth="827" pageHeight="1169" math="0" shadow="0">
      <root>
        <mxCell id="0" />
        <mxCell id="1" parent="0" />
        <mxCell id="2c4RRyOylFPwlqXWgiFf-1" value="&lt;div&gt;trace_print_graph_duration&lt;br&gt;&lt;/div&gt;" style="rounded=1;whiteSpace=wrap;html=1;fontFamily=Verdana;" vertex="1" parent="1">
          <mxGeometry x="190" y="340" width="210" height="60" as="geometry" />
        </mxCell>
        <mxCell id="2c4RRyOylFPwlqXWgiFf-4" style="edgeStyle=orthogonalEdgeStyle;rounded=0;orthogonalLoop=1;jettySize=auto;html=1;" edge="1" parent="1" source="2c4RRyOylFPwlqXWgiFf-2" target="2c4RRyOylFPwlqXWgiFf-1">
          <mxGeometry relative="1" as="geometry" />
        </mxCell>
        <mxCell id="2c4RRyOylFPwlqXWgiFf-2" value="print_graph_duration" style="rounded=1;whiteSpace=wrap;html=1;fontFamily=Verdana;" vertex="1" parent="1">
          <mxGeometry x="190" y="240" width="210" height="60" as="geometry" />
        </mxCell>
        <mxCell id="2c4RRyOylFPwlqXWgiFf-3" value="print_graph_irq" style="rounded=1;whiteSpace=wrap;html=1;fontFamily=Verdana;" vertex="1" parent="1">
          <mxGeometry y="-180" width="210" height="60" as="geometry" />
        </mxCell>
        <mxCell id="2c4RRyOylFPwlqXWgiFf-15" style="edgeStyle=orthogonalEdgeStyle;rounded=0;orthogonalLoop=1;jettySize=auto;html=1;" edge="1" parent="1" source="2c4RRyOylFPwlqXWgiFf-5" target="2c4RRyOylFPwlqXWgiFf-2">
          <mxGeometry relative="1" as="geometry">
            <Array as="points">
              <mxPoint x="295" y="-70" />
            </Array>
          </mxGeometry>
        </mxCell>
        <mxCell id="2c4RRyOylFPwlqXWgiFf-5" value="print_graph_entry_leaf" style="rounded=1;whiteSpace=wrap;html=1;fontFamily=Verdana;" vertex="1" parent="1">
          <mxGeometry y="-100" width="210" height="60" as="geometry" />
        </mxCell>
        <mxCell id="2c4RRyOylFPwlqXWgiFf-6" value="print_graph_entry_nested" style="rounded=1;whiteSpace=wrap;html=1;fontFamily=Verdana;" vertex="1" parent="1">
          <mxGeometry y="-20" width="210" height="60" as="geometry" />
        </mxCell>
        <mxCell id="2c4RRyOylFPwlqXWgiFf-7" value="print_graph_return" style="rounded=1;whiteSpace=wrap;html=1;fontFamily=Verdana;" vertex="1" parent="1">
          <mxGeometry y="60" width="210" height="60" as="geometry" />
        </mxCell>
        <mxCell id="2c4RRyOylFPwlqXWgiFf-8" value="print_graph_comment" style="rounded=1;whiteSpace=wrap;html=1;fontFamily=Verdana;" vertex="1" parent="1">
          <mxGeometry y="140" width="210" height="60" as="geometry" />
        </mxCell>
        <mxCell id="2c4RRyOylFPwlqXWgiFf-13" style="edgeStyle=orthogonalEdgeStyle;rounded=0;orthogonalLoop=1;jettySize=auto;html=1;" edge="1" parent="1" source="2c4RRyOylFPwlqXWgiFf-9" target="2c4RRyOylFPwlqXWgiFf-10">
          <mxGeometry relative="1" as="geometry" />
        </mxCell>
        <mxCell id="2c4RRyOylFPwlqXWgiFf-14" style="edgeStyle=orthogonalEdgeStyle;rounded=0;orthogonalLoop=1;jettySize=auto;html=1;entryX=0;entryY=0.5;entryDx=0;entryDy=0;" edge="1" parent="1" source="2c4RRyOylFPwlqXWgiFf-9" target="2c4RRyOylFPwlqXWgiFf-5">
          <mxGeometry relative="1" as="geometry" />
        </mxCell>
        <mxCell id="2c4RRyOylFPwlqXWgiFf-9" value="print_graph_entry" style="rounded=1;whiteSpace=wrap;html=1;fontFamily=Verdana;" vertex="1" parent="1">
          <mxGeometry x="-200" y="-400" width="210" height="60" as="geometry" />
        </mxCell>
        <mxCell id="2c4RRyOylFPwlqXWgiFf-10" value="get_return_for_leaf" style="rounded=1;whiteSpace=wrap;html=1;fontFamily=Verdana;" vertex="1" parent="1">
          <mxGeometry x="-340" y="-100" width="210" height="60" as="geometry" />
        </mxCell>
        <mxCell id="2c4RRyOylFPwlqXWgiFf-12" style="edgeStyle=orthogonalEdgeStyle;rounded=0;orthogonalLoop=1;jettySize=auto;html=1;" edge="1" parent="1" source="2c4RRyOylFPwlqXWgiFf-11" target="2c4RRyOylFPwlqXWgiFf-9">
          <mxGeometry relative="1" as="geometry" />
        </mxCell>
        <mxCell id="2c4RRyOylFPwlqXWgiFf-11" value="print_graph_function_flags" style="rounded=1;whiteSpace=wrap;html=1;fontFamily=Verdana;" vertex="1" parent="1">
          <mxGeometry x="-200" y="-530" width="210" height="60" as="geometry" />
        </mxCell>
      </root>
    </mxGraphModel>
  </diagram>
</mxfile>
